<svg width="107" height="40" viewBox="0 0 107 40" fill="none" xmlns="http://www.w3.org/2000/svg">
    <defs>
        <linearGradient id="paint0_linear_9773_462198" x1="31.2199" y1="8.88641" x2="67.0581" y2="-4.68129" gradientUnits="userSpaceOnUse">
            <stop stop-color="#CADE1F"/>
            <stop offset="1" stop-color="#6FA42E"/>
        </linearGradient>
        <linearGradient id="paint1_linear_9773_462198" x1="35.1614" y1="22.6119" x2="12.6685" y2="15.1631" gradientUnits="userSpaceOnUse">
            <stop stop-color="#CADE1F"/>
            <stop offset="1" stop-color="#6FA42E"/>
        </linearGradient>
    </defs>
    <path fill-rule="evenodd" clip-rule="evenodd" d="M66.9074 18.8887C68.6753 18.8887 69.6096 19.3847 70.1126 20.5519C72.4986 26.023 74.8989 31.4795 77.2705 36.9651C77.7736 38.1469 77.3855 39.2557 76.3938 39.7517C75.287 40.3061 74.0653 39.9122 73.476 38.7596C73.0017 37.8259 72.6854 36.8046 72.1968 35.8855C72.0243 35.5645 71.5356 35.2144 71.1906 35.1998C68.6897 35.1414 66.1887 35.1852 63.6878 35.156C63.0985 35.1414 62.7823 35.3311 62.5667 35.9001C62.2361 36.8192 61.848 37.7238 61.4312 38.5992C60.8706 39.8101 59.7208 40.277 58.5996 39.7955C57.5216 39.3286 57.1048 38.2052 57.6366 36.9651C60.0082 31.4941 62.4086 26.023 64.8089 20.5665C65.3263 19.3993 66.2318 18.8887 66.9074 18.8887ZM70.2707 31.2023C69.3077 28.8825 68.4166 26.7233 67.3961 24.2722C66.3756 26.7524 65.4844 28.9263 64.5358 31.2023C66.5049 31.2023 68.2729 31.2023 70.2707 31.2023Z" fill="white"/>
    <path fill-rule="evenodd" clip-rule="evenodd" d="M98.7053 18.8972C100.796 18.8681 102.731 19.4061 104.539 20.4822C105.726 21.1948 106.135 22.4309 105.528 23.4924C104.949 24.4958 103.776 24.6703 102.547 24.1032C101.403 23.5797 100.203 23.2016 99.002 22.809C98.6488 22.6926 98.225 22.7508 97.8578 22.809C96.9114 22.9544 96.0497 23.2743 95.8661 24.4086C95.6825 25.5719 96.3887 26.1536 97.3069 26.5026C98.3946 26.9098 99.5246 27.1861 100.626 27.5642C101.587 27.8841 102.562 28.204 103.48 28.6403C105.542 29.6146 106.545 31.3015 106.503 33.6427C106.46 36.0567 105.57 37.9762 103.395 39.0087C99.906 40.6665 96.4876 40.0848 93.1399 38.4416C92.702 38.2235 92.2923 37.9326 91.8827 37.6563C90.8798 36.9438 90.5973 35.7222 91.1906 34.7334C91.7556 33.7882 93.0127 33.5991 94.0863 34.1517C95.3858 34.8206 96.7136 35.5187 98.0979 35.9258C98.9172 36.173 99.906 35.9694 100.782 35.8095C101.53 35.6641 102.095 35.126 102.18 34.2535C102.279 33.3228 101.827 32.683 101.05 32.3776C99.8777 31.9122 98.6488 31.5632 97.4623 31.1561C96.4029 30.7925 95.3152 30.458 94.2982 29.9927C90.5125 28.2913 90.7668 22.1982 93.9874 20.1478C95.4423 19.2171 97.0103 18.8244 98.7053 18.8972Z" fill="white"/>
    <path fill-rule="evenodd" clip-rule="evenodd" d="M85.2861 29.4817C85.2861 32.159 85.2861 34.8215 85.2861 37.4988C85.2861 39.0876 84.4392 40.0143 83.0373 39.9996C81.6792 39.9849 80.8469 39.1023 80.8469 37.543C80.8323 32.159 80.8323 26.7897 80.8469 21.4057C80.8469 19.8758 81.6938 18.9196 82.9935 18.8902C84.3807 18.846 85.2715 19.7728 85.2861 21.3615C85.3153 24.0682 85.2861 26.775 85.2861 29.4817Z" fill="white"/>
    <path d="M0.5 3.64067C0.5 3.64067 17.7476 16.0966 36.8834 11.1488C56.0333 6.21528 70.1244 -1.94006 76.4232 0.418807C73.2667 1.91467 65.8266 6.86253 58.6119 13.522C51.3973 20.1815 28.0482 31.3429 0.5 3.64067Z" fill="url(#paint0_linear_9773_462198)"/>
    <path d="M10.5859 13.7373C10.5859 13.7373 29.7217 32.2774 51.8871 19.318C49.9989 22.0365 32.4695 45.5101 10.5859 13.7373Z" fill="url(#paint1_linear_9773_462198)"/>
</svg>
